<svg width="1034" height="560" viewBox="0 0 1034 560" fill="none" xmlns="http://www.w3.org/2000/svg">
<g clip-path="url(#clip0_30_343)">
<path d="M1015.25 325.769L1010.8 322.52L986.291 304.509C986.102 304.333 985.853 304.235 985.595 304.235C985.337 304.235 985.088 304.333 984.899 304.509L956.218 325.027L955.29 325.676C955.29 324.469 956.032 323.448 956.404 322.427C959.838 312.029 963.365 301.538 966.892 291.141C967.036 290.972 967.115 290.758 967.115 290.537C967.115 290.316 967.036 290.102 966.892 289.934L938.304 269.324C938.021 269.143 937.796 268.885 937.654 268.581H942.945H966.614H973.389C973.622 268.609 973.856 268.548 974.046 268.41C974.235 268.272 974.365 268.068 974.41 267.838L983.692 241.379L986.013 234.324V235.252L996.872 267.745C996.895 267.88 996.944 268.01 997.017 268.125C997.09 268.241 997.186 268.341 997.299 268.419C997.411 268.497 997.538 268.551 997.672 268.579C997.807 268.607 997.945 268.608 998.079 268.581H1032.89C1033.28 268.498 1033.69 268.498 1034.09 268.581L1033.44 269.138L1004.85 289.934C1004.7 290.131 1004.61 290.377 1004.61 290.63C1004.61 290.883 1004.7 291.129 1004.85 291.326L1015.44 324.748C1015.46 325.088 1015.46 325.429 1015.44 325.769" fill="white"/>
<path d="M78.0605 325.769L73.5124 322.52L49.0083 304.509C48.4513 304.509 48.1729 304.509 47.616 304.509L19.0278 325.119L18.0068 325.769C18.4326 324.706 18.8044 323.621 19.1206 322.52C22.6478 312.122 26.082 301.631 29.6092 291.233C29.6092 290.676 29.6092 290.398 29.6092 290.027L0.649731 269.416C0.389252 269.211 0.168975 268.959 0 268.674H5.4763H29.0522H35.828C36.4777 268.674 36.7562 268.674 36.9418 267.931L46.2237 241.472C46.9662 239.151 47.8016 236.923 48.637 234.417V235.345C52.2569 246.114 55.8768 256.976 59.4039 267.838C59.4697 268.1 59.6283 268.329 59.8502 268.483C60.0722 268.637 60.3424 268.704 60.6106 268.674H95.5104C95.94 268.595 96.3803 268.595 96.8099 268.674L96.0673 269.231L67.572 289.934C67.3958 290.123 67.2979 290.372 67.2979 290.63C67.2979 290.888 67.3958 291.137 67.572 291.326C71.0991 302.467 74.719 313.607 78.2461 324.748C78.2274 325.088 78.2274 325.429 78.2461 325.769" fill="white"/>
<path d="M348.163 367.454V431.698H326.536V367.454H285.232V557.122H326.536V468.09H348.163V557.122H389.096V367.454H348.163Z" fill="white"/>
<path d="M685.651 489.443V502.533C685.651 519.522 688.25 525 696.511 525C704.772 525 707.835 519.244 707.835 507.918C707.835 493.156 705.329 489.35 683.424 470.782C653.536 445.716 645.275 432.904 645.275 410.995C645.275 381.101 663.839 364.575 695.583 364.575C703.311 363.993 711.075 365.029 718.379 367.619C725.683 370.209 732.366 374.294 738.001 379.615C742.681 385.783 745.368 393.232 745.705 400.968C745.705 402.082 745.705 408.302 746.262 419.536V422.414H706.443C706.565 420.311 706.565 418.203 706.443 416.101C706.443 405.61 702.73 399.947 695.954 399.947C693.353 400.16 690.935 401.371 689.205 403.326C687.475 405.281 686.568 407.829 686.673 410.438C686.673 418.979 688.715 421.207 725.378 452.215C733.382 458.329 739.732 466.347 743.849 475.54C747.967 484.733 749.721 494.81 748.954 504.854C748.954 540.968 731.04 560.557 696.697 560.557C689.304 561.075 681.883 560.074 674.891 557.615C667.899 555.156 661.485 551.292 656.042 546.26C650.666 540.04 647.414 532.267 646.76 524.071C645.998 517.012 645.719 509.909 645.925 502.812V489.443H685.651Z" fill="white"/>
<path d="M565.359 367.361V508.475C565.359 520.172 568.236 524.721 575.383 524.721C582.53 524.721 585.871 519.894 585.871 508.475V367.361H626.526V508.475C626.526 542.361 608.798 559.814 574.455 559.814C540.112 559.814 524.426 543.289 524.426 508.289V367.361H565.359Z" fill="white"/>
<path d="M469.57 530.106H447.943L444.23 557.122H404.597L431.328 367.361H485.906L512.359 557.122H472.076L469.57 530.106ZM465.857 494.271L464.465 475.703C462.98 461.684 462.144 449.523 461.866 442.931C461.03 432.997 460.473 423.342 459.638 413.594C459.638 411.645 458.988 405.981 458.431 396.883L457.318 413.594C456.482 426.684 455.647 438.382 455.368 442.374C454.162 453.515 453.326 464.284 452.491 475.332L451.006 494.271H465.857Z" fill="white"/>
<path d="M143.498 -5.19548e-05H202.066C209.343 -0.489326 216.622 0.901876 223.206 4.0398C229.789 7.17773 235.455 11.9569 239.658 17.9177C244.206 24.9734 245.877 33.7931 245.877 52.3607C245.877 74.1777 242.999 85.3183 235.945 92.7453C228.871 99.4701 219.435 103.139 209.677 102.958H184.431V189.668H143.498V-5.19548e-05ZM192.692 67.7718C196.088 67.4933 199.322 66.1994 201.973 64.0583C204.572 61.5517 205.408 58.6737 205.408 51.2466C205.408 39.0848 201.973 34.8143 192.042 34.8143H184.338V67.7718H192.692Z" fill="white"/>
<path d="M262.677 0V189.761H345.193V152.44H303.331V0H262.677Z" fill="white"/>
<path d="M472.818 0V38.1565H496.116V189.761H537.142V38.1565H561.275V0H472.818Z" fill="white"/>
<path d="M579.189 0V38.1565H602.486V189.761H643.419V38.1565H667.645V0H579.189Z" fill="white"/>
<path d="M685.002 0V189.761H770.302V152.719H725.935V102.679H766.868V66.565H725.935V36.9496H768.539V0H685.002Z" fill="white"/>
<path d="M890.595 189.668H847.62L825.993 84.4828C825.993 90.9814 826.55 95.5305 826.829 97.8515C827.386 104.072 828.035 110.385 828.314 116.419C828.314 120.133 828.871 125.703 828.871 131.737V189.483H788.216V0H831.562L853.468 93.5809C853.468 87.2679 852.911 82.7188 852.632 80.7692L851.518 65.7295C850.828 59.5635 850.457 53.3661 850.405 47.1618V0H890.781L890.595 189.668Z" fill="white"/>
<path d="M428.173 162.653H406.267L402.555 189.668H363.014L389.746 0H444.416L470.869 189.668H430.4L428.173 162.653ZM424.46 126.817L423.068 108.249C421.582 94.3236 420.747 82.069 420.469 75.5703C419.633 65.5438 419.076 55.8886 418.241 46.2334C418.241 44.2838 417.684 38.5279 417.034 29.4297L415.92 46.2334C415.085 58.4881 413.878 70.557 413.878 74.4562C412.765 85.5968 411.836 96.3661 411.001 107.507L409.33 126.817H424.46Z" fill="white"/>
</g>
<defs>
<clipPath id="clip0_30_343">
<rect width="1034" height="560" fill="white"/>
</clipPath>
</defs>
</svg>
