<svg id="Layer_1" data-name="Layer 1" xmlns="http://www.w3.org/2000/svg" xmlns:xlink="http://www.w3.org/1999/xlink" viewBox="0 0 111.4 60.32"><defs><style>.cls-1{fill:none;}.cls-2{clip-path:url(#clip-path);}.cls-3{fill:#241f21;}</style><clipPath id="clip-path" transform="translate(-1.41 -0.7)"><rect class="cls-1" x="1.41" y="0.7" width="111.4" height="60.32"/></clipPath></defs><g class="cls-2"><path class="cls-3" d="M110.79,35.79l-.48-.35-2.64-1.94a.11.11,0,0,0-.15,0l-3.09,2.21-.1.07c0-.13.08-.24.12-.35.37-1.12.75-2.25,1.13-3.37a.1.1,0,0,0,0-.13l-3.08-2.22a.19.19,0,0,1-.07-.08H103l2.55,0h.73a.1.1,0,0,0,.11-.08l1-2.85.25-.76,0,.1,1.17,3.5a.11.11,0,0,0,.13.09h3.75a.32.32,0,0,1,.13,0l-.07.06-3.08,2.24a.12.12,0,0,0,0,.15l1.14,3.6a.81.81,0,0,1,0,.11" transform="translate(-1.41 -0.7)"/><path class="cls-3" d="M9.82,35.79l-.49-.35L6.69,33.5c-.06,0-.09,0-.15,0L3.46,35.72l-.11.07a3.66,3.66,0,0,0,.12-.35c.38-1.12.75-2.25,1.13-3.37,0-.06,0-.09,0-.13L1.48,29.72a.29.29,0,0,1-.07-.08H2l2.54,0h.73c.07,0,.1,0,.12-.08l1-2.85c.08-.25.17-.49.26-.76l0,.1c.39,1.16.78,2.33,1.16,3.5a.12.12,0,0,0,.13.09H11.7a.39.39,0,0,1,.14,0l-.08.06L8.69,31.93a.11.11,0,0,0,0,.15c.38,1.2.77,2.4,1.15,3.6a1,1,0,0,0,0,.11" transform="translate(-1.41 -0.7)"/></g><polygon class="cls-3" points="37.51 39.58 37.51 46.5 35.18 46.5 35.18 39.58 30.73 39.58 30.73 60.01 35.18 60.01 35.18 50.42 37.51 50.42 37.51 60.01 41.92 60.01 41.92 39.58 37.51 39.58"/><g class="cls-2"><path class="cls-3" d="M75.28,53.42v1.41c0,1.83.28,2.42,1.17,2.42s1.22-.62,1.22-1.84c0-1.59-.27-2-2.63-4-3.22-2.7-4.11-4.08-4.11-6.44,0-3.22,2-5,5.42-5a6,6,0,0,1,4.57,1.62,4.1,4.1,0,0,1,.83,2.3c0,.12,0,.79.06,2v.31H77.52a5.88,5.88,0,0,0,0-.68c0-1.13-.4-1.74-1.13-1.74a1.09,1.09,0,0,0-1,1.13c0,.92.22,1.16,4.17,4.5a6.51,6.51,0,0,1,2.54,5.67c0,3.89-1.93,6-5.63,6a5.85,5.85,0,0,1-4.38-1.54,4.16,4.16,0,0,1-1-2.39A16.77,16.77,0,0,1,71,54.86V53.42Z" transform="translate(-1.41 -0.7)"/><path class="cls-3" d="M62.32,40.27v15.2c0,1.26.31,1.75,1.08,1.75s1.13-.52,1.13-1.75V40.27h4.38v15.2C68.91,59.12,67,61,63.3,61s-5.39-1.78-5.39-5.55V40.27Z" transform="translate(-1.41 -0.7)"/><path class="cls-3" d="M52,57.8H49.67l-.4,2.91H45l2.88-20.44h5.88l2.85,20.44H52.27Zm-.4-3.86-.15-2c-.16-1.51-.25-2.82-.28-3.53-.09-1.07-.15-2.11-.24-3.16,0-.21-.07-.82-.13-1.8l-.12,1.8c-.09,1.41-.18,2.67-.21,3.1-.13,1.2-.22,2.36-.31,3.55L50,53.94Z" transform="translate(-1.41 -0.7)"/><path class="cls-3" d="M16.87.7h6.31a4.58,4.58,0,0,1,4.05,1.93c.49.76.67,1.71.67,3.71,0,2.35-.31,3.55-1.07,4.35A4,4,0,0,1,24,11.79H21.28v9.34H16.87ZM22.17,8a1.83,1.83,0,0,0,1-.4c.28-.27.37-.58.37-1.38,0-1.31-.37-1.77-1.44-1.77h-.83V8Z" transform="translate(-1.41 -0.7)"/></g><polygon class="cls-3" points="28.3 0 28.3 20.44 37.19 20.44 37.19 16.42 32.68 16.42 32.68 0 28.3 0"/><polygon class="cls-3" points="50.94 0 50.94 4.11 53.45 4.11 53.45 20.44 57.87 20.44 57.87 4.11 60.47 4.11 60.47 0 50.94 0"/><polygon class="cls-3" points="62.4 0 62.4 4.11 64.91 4.11 64.91 20.44 69.32 20.44 69.32 4.11 71.93 4.11 71.93 0 62.4 0"/><polygon class="cls-3" points="73.8 0 73.8 20.44 82.99 20.44 82.99 16.45 78.21 16.45 78.21 11.06 82.62 11.06 82.62 7.17 78.21 7.17 78.21 3.98 82.8 3.98 82.8 0 73.8 0"/><g class="cls-2"><path class="cls-3" d="M97.36,21.13H92.73L90.4,9.8c0,.7.06,1.19.09,1.44.06.67.13,1.35.16,2,0,.4.06,1,.06,1.65v6.22H86.33V.7H91l2.36,10.08c0-.68-.06-1.17-.09-1.38l-.12-1.62a19.45,19.45,0,0,1-.12-2V.7h4.35Z" transform="translate(-1.41 -0.7)"/><path class="cls-3" d="M47.54,18.22H45.18l-.4,2.91H40.52L43.4.7h5.89l2.85,20.43H47.78Zm-.4-3.86-.15-2c-.16-1.5-.25-2.82-.28-3.52-.09-1.08-.15-2.12-.24-3.16,0-.21-.06-.83-.13-1.81l-.12,1.81C46.13,7,46,8.3,46,8.72c-.12,1.2-.22,2.36-.31,3.56l-.18,2.08Z" transform="translate(-1.41 -0.7)"/></g></svg>